<?xml version="1.0" encoding="UTF-8" standalone="no"?>
<!DOCTYPE svg PUBLIC "-//W3C//DTD SVG 1.1//EN" "http://www.w3.org/Graphics/SVG/1.1/DTD/svg11.dtd">
<svg width="100%" height="100%" viewBox="0 0 25 25" version="1.1" xmlns="http://www.w3.org/2000/svg" xmlns:xlink="http://www.w3.org/1999/xlink" xml:space="preserve" xmlns:serif="http://www.serif.com/" style="fill-rule:evenodd;clip-rule:evenodd;stroke-linejoin:round;stroke-miterlimit:2;">
    <g transform="matrix(1.13883,0,0,1.13883,-1.73532,-1.73532)">
        <g transform="matrix(0.714109,0,0,0.714109,-4.67166,13.3291)">
            <path d="M39.417,-9.44L32.217,-9.44L27.897,2.462L27.619,-5.159L19.658,-5.19L17.556,7.117L21.876,7.117L23.743,-0.777L24.516,7.117L29.529,7.117L34.353,-5.027L32.169,7.117L36.489,7.117L39.417,-9.44Z" style="fill-rule:nonzero;"/>
        </g>
        <g transform="matrix(0.714109,0,0,0.714109,-4.67166,13.3291)">
            <path d="M27.387,-6.083L27.338,-9.44L9.3,-9.44L8.676,-6.083L14.075,-6.083L11.747,7.117L16.066,7.117L18.394,-6.083L27.387,-6.083Z" style="fill:rgb(104,105,222);fill-rule:nonzero;"/>
        </g>
    </g>
</svg>
